<svg xmlns="http://www.w3.org/2000/svg" width="1400" height="760" viewBox="0 0 1400 760">
  <defs><style>.bg{fill:#f8fafc}.candidate{stroke:#94a3b8;stroke-width:6;stroke-linecap:round}.mst{stroke:#16a34a;stroke-width:14;stroke-linecap:round;opacity:.82}.node{stroke:#1e293b;stroke-width:4}.shelter{fill:#bbf7d0}.warehouse{fill:#bae6fd}.control{fill:#fde68a}.label{font:700 26px Arial,sans-serif;fill:#0f172a;text-anchor:middle}.cost{font:700 23px Arial,sans-serif;fill:#334155;text-anchor:middle}.text{font:700 28px Arial,sans-serif;fill:#0f172a}.small{font:400 24px Arial,sans-serif;fill:#334155}</style></defs>
  <rect class="bg" width="1400" height="760"/>
  <line class="candidate" x1="230" y1="150" x2="510" y2="105"/><line class="candidate" x1="510" y1="105" x2="800" y2="165"/><line class="candidate" x1="800" y1="165" x2="1110" y2="125"/><line class="candidate" x1="230" y1="150" x2="360" y2="420"/><line class="candidate" x1="510" y1="105" x2="610" y2="360"/><line class="candidate" x1="800" y1="165" x2="750" y2="455"/><line class="candidate" x1="1110" y1="125" x2="1040" y2="440"/><line class="candidate" x1="360" y1="420" x2="610" y2="360"/><line class="candidate" x1="610" y1="360" x2="750" y2="455"/><line class="candidate" x1="750" y1="455" x2="1040" y2="440"/><line class="candidate" x1="360" y1="420" x2="555" y2="610"/><line class="candidate" x1="750" y1="455" x2="555" y2="610"/><line class="candidate" x1="750" y1="455" x2="970" y2="620"/><line class="candidate" x1="1040" y1="440" x2="970" y2="620"/>
  <line class="mst" x1="230" y1="150" x2="510" y2="105"/><line class="mst" x1="510" y1="105" x2="610" y2="360"/><line class="mst" x1="610" y1="360" x2="750" y2="455"/><line class="mst" x1="750" y1="455" x2="1040" y2="440"/><line class="mst" x1="1040" y1="440" x2="1110" y2="125"/><line class="mst" x1="750" y1="455" x2="555" y2="610"/><line class="mst" x1="1040" y1="440" x2="970" y2="620"/><line class="mst" x1="360" y1="420" x2="610" y2="360"/>
  <text class="cost" x="370" y="105">4</text><text class="cost" x="655" y="120">8</text><text class="cost" x="955" y="118">7</text><text class="cost" x="287" y="300">6</text><text class="cost" x="540" y="245">3</text><text class="cost" x="800" y="315">5</text><text class="cost" x="1085" y="290">4</text><text class="cost" x="490" y="360">2</text><text class="cost" x="690" y="390">2</text><text class="cost" x="895" y="430">3</text><text class="cost" x="455" y="535">7</text><text class="cost" x="640" y="545">4</text><text class="cost" x="860" y="555">6</text><text class="cost" x="1015" y="555">3</text>
  <circle class="node warehouse" cx="230" cy="150" r="48"/><text class="label" x="230" y="159">W1</text><circle class="node shelter" cx="510" cy="105" r="48"/><text class="label" x="510" y="114">S1</text><circle class="node shelter" cx="800" cy="165" r="48"/><text class="label" x="800" y="174">S2</text><circle class="node control" cx="1110" cy="125" r="48"/><text class="label" x="1110" y="134">C</text><circle class="node shelter" cx="360" cy="420" r="48"/><text class="label" x="360" y="429">S3</text><circle class="node warehouse" cx="610" cy="360" r="48"/><text class="label" x="610" y="369">W2</text><circle class="node shelter" cx="750" cy="455" r="48"/><text class="label" x="750" y="464">S4</text><circle class="node shelter" cx="1040" cy="440" r="48"/><text class="label" x="1040" y="449">S5</text><circle class="node shelter" cx="555" cy="610" r="48"/><text class="label" x="555" y="619">S6</text><circle class="node warehouse" cx="970" cy="620" r="48"/><text class="label" x="970" y="629">W3</text>
  <text class="text" x="90" y="715">Green links form the minimum spanning tree.</text><text class="small" x="705" y="715">Gray links are unused candidates.</text>
</svg>
